# xmcd
#
# Track frame offsets:
#	150
#	21389
#	46637
#	66257
#	90286
#	111713
#	132201
#	156774
#	178376
#	200365
#	214517
#	240253
#
# Disc length: 3604 seconds
#
# Revision: 1
# Processed by: cddbd v1.5.2PL0 Copyright (c) Steve Scherf et al.
# Submitted via: audiograbber 1.82.02
#
DISCID=a00e120c
DTITLE=The Gospel House - Lean on me
DYEAR=2006
DGENRE=Gospels
TTITLE0=Take me back
TTITLE1=Lean on me
TTITLE2=More than I can bear
TTITLE3=Thgis is the Lord's doing
TTITLE4=Jesus will still be there
TTITLE5=There's a Light
TTITLE6=Jesus is Love
TTITLE7=Prayer for the City
TTITLE8=Jesus is the Answer
TTITLE9=Hold on
TTITLE10=My Life is in your Hands
TTITLE11=We give Thanks
EXTD=
EXTT0=
EXTT1=
EXTT2=
EXTT3=
EXTT4=
EXTT5=
EXTT6=
EXTT7=
EXTT8=
EXTT9=
EXTT10=
EXTT11=
PLAYORDER=
